<svg viewBox="0 0 396.51 89.603" version="1.1" height="70" width="309.78" class="icon" xmlns="http://www.w3.org/2000/svg">
 <g transform="matrix(.46607 0 0 .46607 34.439 -122.49)">
  <g transform="matrix(.18784 0 0 .18784 -88.205 262.72)">
   <path fill="#daaaab" d="m482.73 317.74c-23.482-13.958-394.1-225.79-394.1 298.2 0 246.31 210.84 344.84 269.3 344.84 58.458 0 70.281-45.978 125.29-46.635 55.01-0.65683 67.325 46.635 125.29 46.635s269.3-98.525 269.3-344.84c-0.49262-523.99-371.77-312.16-395.08-298.2zm-229.89 509.04c13.137 21.511-138.59-201.32-43.022-390.98 95.569-189.66 216.1-80.79 216.1-80.79s-240.89-2.6273-173.24 472.43zm149.76-713.81c-17.242 23.318-83.418 73.237-154.68 67.489-135.96-11.166-150.25-95.076-159.77-114.95 223.32-169.46 314.95 45.978 314.95 45.978v2.1347"></path>
   <g fill="#892127">
    <path d="m307.36 226.77h-13.465c-138.43-11.33-168.15-92.942-179.31-123.65-1.1495-3.12-2.1347-5.7473-2.9558-7.7178a19.048 19.048 0 0 1 5.7473-23.153c80.79-61.414 155.67-83.418 222.34-65.683 92.942 24.631 133.34 117.41 134.98 121.35a19.048 19.048 0 0 1 0.98524 11.987s0 1.8063-0.98524 3.4484a18.884 18.884 0 0 1-2.9557 5.7473 229.89 229.89 0 0 1-164.37 77.67zm-155.34-133.17c11.166 30.214 36.126 85.716 145 94.584 58.786 4.9262 114.95-32.842 137.93-55.338-11.823-21.675-45.978-74.55-105.26-90.15-51.725-13.629-111.5 3.4484-177.67 50.904z"></path>
    <path d="m670.09 85.224c-113.8-11.495-141.88 188.02-141.88 188.02h-34.812s-49.262-174.88 118.72-255.67c-3.7768-3.2842 76.028 85.716 57.965 67.654z"></path>
    <path d="m379.61 1024c-73.237 0-303.62-114.95-303.62-382.93 0-190.15 45.978-311.99 136.62-364.38 113.3-64.534 258.13 4.9262 299.35 27.423 41.216-22.496 185.88-91.956 299.35-27.423 90.643 51.561 136.62 174.22 136.62 364.38a387.53 387.53 0 0 1-125.29 293.28c-63.056 58.13-138.92 89.493-178.33 89.493a130.05 130.05 0 0 1-79.148-28.408 78.163 78.163 0 0 0-106.57 0 130.05 130.05 0 0 1-78.984 28.572zm-59.443-735.65a177.02 177.02 0 0 0-88.672 21.675c-77.835 44.336-117.41 155.67-117.41 331.21 0 254.85 218.56 344.84 265.36 344.84a94.42 94.42 0 0 0 57.801-21.84 114.95 114.95 0 0 1 149.43 0 94.42 94.42 0 0 0 57.637 21.84c26.766 0 93.763-25.288 152.38-79.312a350.09 350.09 0 0 0 112.97-265.2c0-175.37-39.41-286.87-117.41-331.21-109.2-62.071-264.21 28.736-270.61 32.842a19.048 19.048 0 0 1-19.541 0c-4.762-3.6126-92.449-54.845-181.94-54.845z"></path>
   </g>
  </g>
  <path aria-label="Recipes By Clare" style="font-variation-settings:'wght' 700" stroke-width="1.6272" d="m158.41 383.02q-2.6214 0-6.0075-2.8399-3.386-2.8399-7.0998-7.4274-3.6045-4.5875-7.209-10.049-3.4953-5.5706-6.6628-11.141-3.1676-5.5706-5.3521-10.049-2.9491 10.049-5.6798 19.879-2.6214 9.7212-5.0244 18.022-3.1676 0-6.0075-1.7476-2.7307-1.7476-2.7307-4.5875 0-1.2015 0.54614-2.8399 0.54613-1.6384 0.98304-3.1676 3.1676-9.5028 5.6798-16.93 2.5122-7.5367 4.6968-13.763 2.2938-6.3352 4.5875-12.452 2.403-6.2259 5.2429-12.998t6.5536-15.292q-4.2599 0.87382-7.5367 2.2938-3.1676 1.42-5.2429 2.5122-1.9661 1.0923-2.7307 1.0923-0.54613 0-1.6384-0.65536-1.0923-0.76459-1.9661-1.7476-0.76459-1.0923-0.76459-1.8569 3.0584-1.2015 7.0998-2.6214 4.1506-1.42 9.0658-2.403 4.9152-1.0923 10.158-1.0923 4.9152 0 10.158 1.2015 5.2429 1.0923 9.7212 3.6045t7.209 6.5536 2.7307 9.7212q0 5.1337-2.2938 8.9566-2.2938 3.7137-6.1167 6.3352-3.823 2.6214-8.4105 4.2598t-9.2843 2.6214q-4.6968 0.87381-8.7382 1.2015-3.9322 0.32769-6.5536 0.43691 3.4953 5.5706 6.8813 10.813 3.386 5.2429 7.209 10.486 3.9322 5.1337 9.0658 10.377 5.1337 5.1337 12.124 10.486-0.43691 2.1845-2.7307 3.4953-2.1845 1.3107-3.9322 1.3107zm-29.819-50.244q6.1167-0.43691 12.015-1.9661 6.0075-1.5292 10.813-4.2599 4.9152-2.7307 7.7551-6.7721 2.9491-4.1506 2.9491-9.7212 0-5.6798-2.8399-8.8474-2.8399-3.2768-7.3182-4.6968t-9.3935-1.5292q-3.7137 7.3182-7.209 17.258-3.4953 9.8304-6.7721 20.535zm52.101 41.834q-6.9905 0-10.813-3.8229-3.7137-3.7137-3.7137-9.3935 0-4.806 2.403-10.158 2.5122-5.4614 6.6628-10.158 4.1506-4.806 9.1751-7.7551t10.049-2.9491q2.8399 0 5.3521 1.5292 2.6214 1.42 2.6214 5.789 0 4.1506-2.403 7.7551t-6.4444 6.4444-8.9566 4.6968q-4.806 1.7476-9.7212 2.2938-0.10922 0.4369-0.21845 0.98304 0 0.43691 0 1.5292 0 0.54613 0.10923 1.9661 0.21845 1.3107 0.98304 2.8399t2.5122 2.6214 4.806 1.0923q4.5875 0 9.1751-2.5122 4.6968-2.6214 8.7382-6.8813 4.1506-4.2598 6.8813-9.5028l2.1845 1.7476q-2.9491 6.5536-7.6459 11.469-4.5875 4.9152-10.267 7.6459-5.5706 2.7307-11.469 2.7307zm-4.5875-19.77q2.8399-0.32768 6.3352-1.9661 3.4953-1.6384 6.6628-4.1506 3.2768-2.5122 5.3521-5.4614 2.0753-3.0584 2.0753-6.1167 0-1.2015-0.43691-1.6384t-1.42-0.43691q-2.5122 0-5.2429 1.8569-2.7307 1.7476-5.3521 4.6968-2.6214 2.8399-4.6968 6.3352-2.0753 3.4953-3.2768 6.8813zm41.506 21.081q-5.6798 0-9.3935-3.6045-3.6045-3.4953-3.6045-10.813 0-5.3521 2.0753-10.486 2.0753-5.1337 5.5706-9.1751 3.4953-4.1506 7.7551-6.5536 4.3691-2.403 8.8474-2.403 4.5875 0 6.5536 2.2938 2.0753 2.2938 2.0753 5.3521t-1.5292 6.0075q-1.42 2.8399-3.9322 2.8399-2.0753 0-3.386-2.0753 1.0923-0.76459 2.2938-2.8399 1.2015-2.0753 1.2015-5.3521 0-0.87382-0.4369-1.3107-0.43691-0.54613-1.6384-0.54613-2.7307 0-5.789 2.5122-2.9491 2.403-5.5706 6.3352-2.5122 3.8229-4.1506 8.192-1.5292 4.2598-1.5292 7.8644 0 3.0584 1.5292 5.6798 1.6384 2.5122 6.2259 2.5122 4.1506 0 8.6289-2.403t8.4105-6.6628q3.9322-4.3691 6.3352-10.377l2.1845 1.9661q-2.6214 6.6628-7.3182 11.906-4.5875 5.1337-10.267 8.0828-5.5706 3.0584-11.141 3.0584zm32.768-2.8399q-4.806 0-7.209-2.8399t-2.403-6.8813q0-2.5122 0.87381-6.3352 0.87382-3.823 2.403-7.9736 1.6384-4.2599 3.7137-7.9736t4.4783-6.0075q2.403-2.403 4.806-2.403 1.3107 0 2.2938 0.87381 0.98304 0.76459 0.98304 2.2938 0 1.42-1.7476 4.2598-1.6384 2.8399-3.9322 6.5536-2.1845 3.7137-3.9322 7.7551-1.6384 3.9322-1.6384 7.5367 0 3.4953 1.2015 4.6968 1.3107 1.0923 3.7137 1.0923 3.7137 0 8.0828-3.7137t9.0658-12.998l1.6384 1.7476q-3.823 9.612-9.7212 14.964-5.8982 5.3521-12.67 5.3521zm12.889-49.261q-2.0753 0-3.823-0.98304-1.6384-1.0923-1.6384-3.2768 0-2.6214 2.8399-4.4783t5.8983-1.8569q1.9661 0 3.2768 0.87382 1.42 0.87381 1.42 3.1676t-2.5122 4.4783q-2.5122 2.0753-5.4614 2.0753zm-1.0923 76.568q-0.87381 0-1.8569-0.54613-0.98304-0.43691-1.6384-1.0923-0.76459-0.65536-0.87382-1.0923 2.7307-7.9736 4.6968-13.872 1.8569-5.789 3.1676-11.032 1.3107-5.1337 2.403-10.704 0.98304-5.6798 1.9661-12.889 1.0923-7.3182 2.403-17.586 0.21845-1.3107 0.54614-1.8569 0.32768-0.65537 2.0753-0.65537 3.386 0 4.9152 1.8569 1.5292 1.7476 1.5292 3.9322 0 1.0923-0.43691 3.8229-0.32768 2.7307-1.0923 6.4444 2.0753-3.1676 4.6968-6.0075 2.7307-2.8399 6.0075-4.5875 3.2768-1.8568 7.0998-1.8568 5.3521 0 8.8474 3.6045t3.4953 9.5028q0 4.2598-1.9661 9.0658-1.8569 4.6968-5.3521 8.9566-3.4953 4.1506-8.4105 6.7721-4.9152 2.7307-10.813 2.7307-3.4953 0-5.5706-0.87382-2.0753-0.87381-2.0753-1.9661 0-0.76459 0.76459-0.87382 0.87382-0.21845 1.8569-0.21845 5.1337-0.10923 9.2843-2.1845 4.2598-2.0753 7.3182-5.3521 3.0584-3.386 4.6968-7.209 1.6384-3.8229 1.6384-7.5367 0-3.2768-1.5292-5.6798-1.42-2.403-4.5875-2.403-2.7307 0-5.5706 1.7476-2.7307 1.7476-5.1337 4.4783-2.403 2.6214-4.2598 5.5706-1.8569 2.8399-2.8399 5.0244-2.0753 7.209-3.823 14.309-1.6384 7.209-3.1676 13.326t-3.0584 10.377q-1.6384 4.2599-3.4953 5.789-0.87381 0.76458-1.8569 0.76458zm63.898-25.778q-6.9905 0-10.813-3.8229-3.7137-3.7137-3.7137-9.3935 0-4.806 2.403-10.158 2.5122-5.4614 6.6628-10.158 4.1506-4.806 9.1751-7.7551t10.049-2.9491q2.8399 0 5.3521 1.5292 2.6214 1.42 2.6214 5.789 0 4.1506-2.403 7.7551t-6.4444 6.4444-8.9566 4.6968q-4.806 1.7476-9.7212 2.2938-0.10923 0.4369-0.21846 0.98304 0 0.43691 0 1.5292 0 0.54613 0.10923 1.9661 0.21846 1.3107 0.98304 2.8399 0.76459 1.5292 2.5122 2.6214 1.7476 1.0923 4.806 1.0923 4.5875 0 9.1751-2.5122 4.6968-2.6214 8.7382-6.8813 4.1506-4.2598 6.8813-9.5028l2.1845 1.7476q-2.9491 6.5536-7.6459 11.469-4.5875 4.9152-10.267 7.6459-5.5706 2.7307-11.469 2.7307zm-4.5875-19.77q2.8399-0.32768 6.3352-1.9661 3.4953-1.6384 6.6628-4.1506 3.2768-2.5122 5.3521-5.4614 2.0753-3.0584 2.0753-6.1167 0-1.2015-0.4369-1.6384-0.43691-0.43691-1.42-0.43691-2.5122 0-5.2429 1.8569-2.7307 1.7476-5.3521 4.6968-2.6214 2.8399-4.6968 6.3352-2.0753 3.4953-3.2768 6.8813zm41.943 20.535q-5.4613 0-8.8474-2.2938-3.2768-2.1845-4.6968-5.5706-1.42-3.4953-1.42-7.0998 0-3.1676 0.87381-4.9152 0.87382-1.7476 2.1845-2.5122 1.3107-0.87382 2.403-1.3107 1.2015-0.4369 1.7476-0.98304 2.7307-2.8399 5.5706-6.5536 2.9491-3.8229 5.0244-8.4105v-1.0923q0-4.3691 1.42-6.1167 1.5292-1.8569 3.4953-1.8569 1.3107 0 1.8569 0.65536 0.65536 0.65536 0.76459 1.5292 0 0.65536-0.32768 1.5292-0.21846 0.87381-0.21846 2.403 0 3.2768 1.5292 7.5367 1.6384 4.1506 3.1676 8.8474 1.6384 4.6968 1.6384 9.612 0 1.3107-0.10923 2.403-0.10922 1.0923-0.32768 2.0753 3.386-0.87382 6.6628-3.7137 3.2768-2.9491 6.2259-8.6289l1.3107 0.98305q-2.0753 6.2259-6.0075 10.049-3.9322 3.7137-9.1751 4.5875-1.7476 4.4783-5.789 6.6628-3.9322 2.1845-8.9566 2.1845zm-0.76458-4.806q2.1845 0 4.0414-1.0923t2.9491-3.1676q-4.4783-0.98304-8.0828-3.4953t-5.5706-5.1337q-1.5292 0.32768-1.5292 2.9491 0 3.6045 2.0753 6.7721t6.1167 3.1676zm7.8643-7.5367q0.21845-0.76459 0.21845-1.7476 0.10923-1.0923 0.10923-1.6384-0.10923-4.9152-1.3107-9.7212-1.2015-4.806-2.403-9.8304-1.9661 3.386-4.5875 7.3182t-4.9152 6.3352q1.7476 2.9491 5.1337 5.5706 3.386 2.6214 7.7551 3.7137zm64.881 16.275q-6.6628 0-10.049-2.1845-3.386-2.1845-3.4953-7.209 0-1.0923 1.2015-1.0923 0.98304 0 2.9491 0.54614 2.0753 0.4369 7.7551 0.4369 9.612 0 17.695-1.9661 8.0828-2.0753 13.981-5.4614 6.0075-3.4953 9.2843-7.7551 3.2768-4.3691 3.2768-9.0658 0-4.2598-2.6214-6.7721-2.5122-2.6214-6.7721-3.9322-4.1506-1.42-9.1751-1.8569-4.9152-0.43691-9.7212-0.43691-2.0753 0-4.1506 0.10923-2.0753 0-3.9322 0-2.403 8.3012-4.6968 17.149-2.2938 8.8474-4.806 17.367-3.2768 0-5.6798-1.7476t-2.403-4.2598q0-0.98304 0.32768-2.5122 0.43691-1.6384 1.2015-3.8229 0.65536-2.0753 2.1845-6.8813 1.6384-4.806 3.8229-11.36t4.806-13.763q2.7307-7.3182 5.5706-14.309 2.9491-6.9905 5.789-12.561-4.3691 0.98305-7.209 2.2938-2.8399 1.3107-4.4783 2.2938-1.6384 0.98304-2.5122 0.98304-0.65536 0-1.7476-0.76459-0.98305-0.76459-1.8569-1.7476-0.76459-0.98304-0.76459-1.7476 5.8983-2.403 12.233-4.2598 6.3352-1.8569 15.292-1.8569 3.9322 0 8.6289 0.65536 4.6968 0.54613 8.9566 2.403 4.2598 1.7476 6.9905 5.3521 2.8399 3.4953 2.8399 9.3935 0 4.6968-2.0753 8.192-1.9661 3.386-5.3521 5.8983-3.386 2.403-7.4274 4.0414-4.0414 1.5292-7.9736 2.5122 6.7721 0.87382 11.25 2.8399 4.5875 1.8569 7.209 4.3691 2.7307 2.5122 3.8229 5.2429 1.2015 2.6214 1.2015 5.1337 0 6.4444-3.386 11.578-3.386 5.1337-8.9566 8.9566-5.4614 3.823-12.124 6.3352-6.5536 2.6214-13.107 3.9322t-11.797 1.3107zm7.3182-50.791q6.1167-0.21845 12.015-1.42 5.8982-1.2015 10.595-3.4953 4.806-2.403 7.6459-6.1167 2.8399-3.8229 2.8399-9.3935 0-5.2429-2.8399-8.0828t-7.4274-3.9322-9.8304-1.0923q-0.10923 0-0.21846 0-0.10922 0-0.21845 0-3.7137 7.3182-6.7721 15.947-3.0584 8.5197-5.789 17.586zm50.9 71.871q-2.7307 0-5.1337-1.7476-2.2938-1.6384-2.2938-5.3521 0-3.4953 2.0753-6.3352 2.0753-2.7307 5.3521-5.1337 3.2768-2.2938 6.9905-4.2598 3.823-1.8569 7.3182-3.4953 1.2015-3.1676 2.6214-7.9736 1.5292-4.9152 2.6214-9.0658-3.386 4.6968-7.209 8.3012-3.823 3.6045-8.5197 3.6045-1.9661 0-4.1506-0.76459-2.1845-0.87382-3.7137-2.8399-1.42-2.0753-1.42-5.4614 0-2.8399 0.98304-6.8813 1.0923-4.0414 2.6214-7.8644 1.6384-3.9322 3.386-6.4444 1.7476-2.6214 3.0584-2.6214 0.65536 0 1.8569 0.54614 1.3107 0.43691 2.5122 1.3107 1.2015 0.76459 1.5292 1.7476-0.98304 1.3107-2.1845 3.823-1.2015 2.403-2.2938 5.4614-1.0923 2.9491-1.8569 5.789-0.65536 2.8399-0.65536 4.9152 0 1.6384 0.65536 2.8399t2.5122 1.2015q2.403 0 4.9152-1.9661 2.6214-1.9661 5.0244-5.0244 2.5122-3.0584 4.4783-6.2259 0.21845-0.76459 0.4369-2.403 0.21846-1.6384 0.76459-3.386 0.54614-1.8569 1.8569-3.386 1.42-1.5292 3.9322-1.5292 0.87382 0 1.6384 0.10923 0.76459 0.10922 1.8569 0.32768 0 1.6384-1.2015 6.4444-1.0923 4.6968-2.9491 10.923t-4.1506 12.452q4.5875-1.8569 9.5028-6.1167 5.0244-4.3691 8.0828-12.343l1.8569 1.5292q-1.6384 5.4614-5.0244 9.5028-3.2768 4.0414-7.4274 6.8813t-8.4105 4.6968q-2.9491 7.0998-6.4444 13.107-3.386 6.0075-7.209 9.5028-3.8229 3.6045-8.192 3.6045zm-1.0923-4.0414q2.0753 0 5.789-4.3691t7.5367-13.107q-3.4953 1.7476-7.0998 4.0414-3.4953 2.403-5.8983 5.0244t-2.403 5.3521q0 1.0923 0.43691 2.0753 0.54614 0.98305 1.6384 0.98305zm95.246-17.039q-8.3012 0-13.653-3.9322-5.2429-3.9322-7.7551-10.158-2.403-6.2259-2.403-12.889 0-8.6289 2.6214-17.258 2.6214-8.7382 7.209-16.602 4.6968-7.8644 10.595-13.981 5.8982-6.1167 12.561-9.612 6.7721-3.6045 13.435-3.6045 4.806 0 8.0828 2.2938 3.2768 2.1845 3.2768 7.6459 0 3.2768-1.2015 7.3182-1.0923 4.0414-3.0584 7.8643-1.8569 3.7137-4.2599 6.1167t-4.9152 2.403q-1.0923 0-2.2938-0.76459t-2.1845-2.6214q1.6384-1.8569 3.7137-4.4783 2.0753-2.7307 3.9322-5.6798 1.8569-3.0584 3.0584-5.8983 1.2015-2.9491 1.2015-5.1337 0-1.9661-1.0923-3.0584-1.0923-1.2015-3.8229-1.2015-4.806 0-9.9397 3.6045-5.0244 3.6045-9.7212 9.7212-4.6968 6.0075-8.5197 13.544-3.7137 7.4274-5.8982 15.401-2.1845 7.8643-2.1845 14.964 0 5.2429 1.5292 10.049 1.6384 4.6968 5.1337 7.6459 3.4953 3.0584 9.1751 3.0584 5.8983 0 11.687-3.2768 5.8983-3.2768 10.704-8.6289 4.9152-5.3521 7.8644-11.469l2.8399 1.8569q-3.8229 7.3182-9.1751 13.435-5.3521 6.0075-12.124 9.612-6.6628 3.7137-14.418 3.7137zm39.649-6.2259q-5.1337 0-7.209-3.386-1.9661-3.4953-1.9661-8.192 0-5.3521 1.9661-12.561 1.9661-7.209 5.1337-15.073 3.2768-7.9736 7.0998-15.51 3.9322-7.6459 7.8643-13.763t7.209-9.7212q3.386-3.7137 5.4614-3.7137 1.42 0 2.403 1.5292 0.98304 1.42 1.5292 3.4953 0.65537 1.9661 0.65537 3.7137 0 2.9491-1.5292 7.7551-1.42 4.6968-4.1506 10.377-2.6214 5.6798-6.3352 11.687-3.6045 5.8982-8.0828 11.25-4.3691 5.3521-9.3935 9.2843-0.43691 2.7307-0.87382 5.4614-0.32768 2.6214-0.32768 4.806 0 3.9322 1.3107 5.789 1.3107 1.7476 3.386 1.7476 2.7307 0 5.5706-2.5122 2.9491-2.6214 5.5706-6.5536 2.7307-4.0414 4.6968-8.3012l2.6214 1.42q-4.6968 9.7212-10.486 15.401-5.789 5.5706-12.124 5.5706zm2.6214-29.601q3.7137-4.0414 6.9905-8.7382 3.386-4.806 6.1167-9.7212 2.8399-4.9152 4.9152-9.5028 2.0753-4.5875 3.1676-8.192 1.2015-3.7137 1.3107-5.8983 0-0.10922 0-0.10922 0-0.10923 0-0.21846-0.87381 0-2.8399 2.5122-1.8569 2.403-4.4783 6.6628t-5.4614 9.7212q-2.7307 5.4614-5.3521 11.578-2.5122 6.0075-4.3691 11.906zm20.862 31.457q-3.6045 0-6.2259-2.403-2.7307-2.403-2.7307-7.209 0-3.823 1.7476-8.3012 1.7476-4.4783 4.806-8.8474t6.9905-7.8643q3.9322-3.6045 8.4105-5.789t8.9566-2.1845q4.6968 0 7.9736 2.403t3.2768 6.3352q0 2.9491-2.0753 4.2599-2.0753 1.3107-4.9152 0.76459 0.21845-0.98305 0.32768-1.9661 0.21845-0.98304 0.21845-2.0753 0-2.1845-0.87382-3.9322-0.87381-1.7476-3.7137-1.7476-3.0584 0-6.2259 2.0753-3.1676 2.0753-6.1167 5.4614-2.8399 3.2768-5.1337 7.3182-2.2938 3.9322-3.6045 7.7551-1.3107 3.823-1.3107 6.8813 0 3.4953 2.5122 3.4953t5.5706-2.403q3.0584-2.5122 6.1167-6.2259 3.1676-3.7137 6.0075-7.5367 2.8399-3.9322 4.9152-6.6628 0.32768-0.54613 0.87382-0.54613 0.43691 0.10923 1.6384 0.54613 1.3107 0.32769 2.403 1.0923 1.0923 0.76459 1.0923 1.9661 0 1.0923-0.98305 2.8399-0.87381 1.6384-2.1845 3.7137-1.2015 1.9661-2.1845 4.0414-0.87381 1.9661-0.87381 3.8229 0 1.42 0.76459 2.7307 0.76459 1.2015 2.5122 1.2015 2.6214 0 7.3182-3.823 4.806-3.9322 9.7212-13.216l2.0753 2.0753q-2.6214 5.8983-6.3352 10.486-3.6045 4.4783-7.6459 6.9905-4.0414 2.6214-8.192 2.6214-4.4783 0-6.6628-2.8399t-2.403-6.1167q0-0.21845 0-0.32768t0-0.21845q-4.3691 5.2429-8.0828 8.3012-3.6045 3.0584-7.7551 3.0584zm62.587-2.2938q-4.0414 0-6.5536-2.1845-2.5122-2.0753-2.5122-5.6798 0-3.0584 1.5292-6.5536 1.5292-3.4953 3.0584-6.8813 1.6384-3.386 1.6384-6.0075 0-2.5122-1.6384-4.1506-1.6384-1.7476-3.823-2.8399-2.403 6.0075-5.4614 11.687-2.9491 5.5706-4.806 8.7382l-1.6384-3.1676q1.5292-2.8399 4.0414-8.0828t4.806-11.687q-1.0923-1.0923-1.0923-2.9491 0-2.8399 1.7476-5.3521t3.386-2.5122q1.3107 0 1.8569 1.5292 0.65536 1.42 0.65536 1.9661 0 0.54613-0.54614 1.9661-0.43691 1.42-0.65536 2.0753 0.10923 1.2015 1.8569 2.403 1.8569 1.0923 4.1506 2.6214 2.2938 1.5292 4.0414 3.823t1.7476 5.789q0 3.1676-1.42 6.4444t-2.8399 6.1167-1.42 4.9152q0 1.5292 0.76459 2.0753 0.87382 0.43691 1.9661 0.43691 2.6214 0 5.4614-1.5292 2.8399-1.6384 5.5706-4.1506t4.806-5.2429q2.0753-2.8399 3.1676-5.1337l2.6214 1.9661q-2.0753 4.6968-6.0075 9.2843-3.9322 4.4783-8.7382 7.4274-4.806 2.8399-9.7212 2.8399zm32.113 1.9661q-6.9905 0-10.813-3.8229-3.7137-3.7137-3.7137-9.3935 0-4.806 2.403-10.158 2.5122-5.4614 6.6628-10.158 4.1506-4.806 9.1751-7.7551 5.0244-2.9491 10.049-2.9491 2.8399 0 5.3521 1.5292 2.6214 1.42 2.6214 5.789 0 4.1506-2.403 7.7551t-6.4444 6.4444-8.9566 4.6968q-4.806 1.7476-9.7212 2.2938-0.10923 0.4369-0.21846 0.98304 0 0.43691 0 1.5292 0 0.54613 0.10923 1.9661 0.21845 1.3107 0.98304 2.8399t2.5122 2.6214q1.7476 1.0923 4.806 1.0923 4.5875 0 9.1751-2.5122 4.6968-2.6214 8.7382-6.8813 4.1506-4.2598 6.8813-9.5028l2.1845 1.7476q-2.9491 6.5536-7.6459 11.469-4.5875 4.9152-10.267 7.6459-5.5706 2.7307-11.469 2.7307zm-4.5875-19.77q2.8399-0.32768 6.3352-1.9661 3.4953-1.6384 6.6628-4.1506 3.2768-2.5122 5.3521-5.4614 2.0753-3.0584 2.0753-6.1167 0-1.2015-0.43691-1.6384-0.4369-0.43691-1.42-0.43691-2.5122 0-5.2429 1.8569-2.7307 1.7476-5.3521 4.6968-2.6214 2.8399-4.6968 6.3352-2.0753 3.4953-3.2768 6.8813z"></path>
  <text font-weight="bold" fill="#892127" font-size="50" font-family="Arial, sans-serif" y="460" x="250">Recipes By Abdel</text></g>
</svg>